<?xml version="1.0"?>
<svg xmlns="http://www.w3.org/2000/svg" xmlns:xlink="http://www.w3.org/1999/xlink" xmlns:svgjs="http://svgjs.com/svgjs" version="1.1" width="512" height="512" x="0" y="0" viewBox="0 0 512 512" style="enable-background:new 0 0 512 512" xml:space="preserve"><g><path xmlns="http://www.w3.org/2000/svg" d="m53.059 385.946 6.303 106.364 69.28-9.133-31.085-102.839z" fill="#ffffff" data-original="#000000" style=""/><path xmlns="http://www.w3.org/2000/svg" d="m449.612 348.024-75.737 41.476c.1 1.267.167 2.544.167 3.837a5 5 0 0 1 -5 5c-.077 0-.154 0-.231 0l-47.3-2.178a225.279 225.279 0 0 0 -41.68 1.958 5 5 0 0 1 -1.394-9.9 235.525 235.525 0 0 1 43.534-2.046l41.705 1.921c-2.508-17.894-17.635-31.694-35.863-31.694h-55.452a70.391 70.391 0 0 1 -30.908-7.2l-5.718-2.813a85.65 85.65 0 0 0 -90.249 8.863l-13.652 12.352a60.383 60.383 0 0 1 -23.7 13.148l28.319 93.687 39.562-25.445c.075-.049.153-.1.232-.141a35.39 35.39 0 0 1 26.225-3.6l83.185 15.584a95.049 95.049 0 0 0 59.3-8.412l139.779-97.641a28 28 0 0 0 -35.124-6.756z" fill="#ffffff" data-original="#000000" style=""/><path xmlns="http://www.w3.org/2000/svg" d="m191.84 164.971 52.231 14.6.117.034a11.789 11.789 0 0 0 14.18-6.407 11.713 11.713 0 0 0 -6.693-15.814l-57.861-19.04a37.485 37.485 0 0 1 -19.043-14.252l-3.8-5.512a5 5 0 0 1 8.235-5.674l2.582 3.747a112.94 112.94 0 0 0 32.076.118l3.086-8.51a24.24 24.24 0 0 1 21.175-15.889l-30.925-31.747c-.07-.073-.139-.147-.2-.224a15.709 15.709 0 0 0 -16.471-4.8c-50.975 15.599-97.121 13.689-110.702 12.665l-21.586 60.013 49.271 22.194c.076.035.152.071.226.11a91.95 91.95 0 0 0 38.743 10.011l21.325.687a101.588 101.588 0 0 1 24.034 3.69zm-10.67-95.234c2.022-.54 4.06-1.108 6.056-1.689a5 5 0 1 1 2.8 9.6c-2.069.6-4.181 1.193-6.276 1.752a5 5 0 1 1 -2.578-9.662zm-16.548 14.081a326.912 326.912 0 0 1 -56.1 6h-.107a5 5 0 0 1 -.1-10 316.878 316.878 0 0 0 54.379-5.818 5 5 0 0 1 1.931 9.812z" fill="#ffffff" data-original="#000000" style=""/><path xmlns="http://www.w3.org/2000/svg" d="m196.841 234.753 220.848 79.747a14.216 14.216 0 0 0 18.173-8.515l38.038-104.885a14.2 14.2 0 0 0 -8.527-18.2l-220.848-79.745a14.217 14.217 0 0 0 -18.172 8.515l-8.7 23.99 18.975 6.245c12.95 3.663 18.038-2.272 24.366-16.749a6.662 6.662 0 0 1 8.476-3.29l161.151 59.949a6.665 6.665 0 0 1 4.292 8.052c-5 16.071-5.455 23.209 10.53 29.155l.078.03a6.79 6.79 0 0 1 3.747 3.46 5.977 5.977 0 0 1 .186 4.6l-15.63 41.905a6.381 6.381 0 0 1 -8.225 3.531c-.034-.011-.069-.023-.1-.035-14.687-5.465-20.66 1.22-27.78 17.286a6.434 6.434 0 0 1 -5.812 3.89 5.824 5.824 0 0 1 -2.035-.365l-162.578-60.477a6.286 6.286 0 0 1 -3.636-7.8c6.438-21.051 2.03-26.846-9.627-31.2l-.07-.025a6.391 6.391 0 0 1 -4-8.084l1.8-4.816-9.555-2.671-13.892 38.3a14.2 14.2 0 0 0 8.527 18.2z" fill="#ffffff" data-original="#000000" style=""/><path xmlns="http://www.w3.org/2000/svg" d="m268.756 132.269c-2.995 6.409-6.633 12.538-11.965 16.433a21.723 21.723 0 0 1 -15.467 40.483l-19.9-5.561-.8 2.14c20.376 9.346 16.952 27.306 13.566 38.979l155.764 57.946c5.083-11.041 14.256-26.87 35.791-20.62l13.039-34.961c-20.913-9.251-18.105-24.6-14.42-36.951zm98.862 90.071a41.084 41.084 0 0 1 -38.528 27.087 40.508 40.508 0 0 1 -36.656-23.353 41.043 41.043 0 0 1 50.855-56.081 40.279 40.279 0 0 1 22.935 20.944 40.762 40.762 0 0 1 1.394 31.403z" fill="#ffffff" data-original="#000000" style=""/><path xmlns="http://www.w3.org/2000/svg" d="m161.392 193.6a.786.786 0 0 0 .585.087l28.548-12.561 2.022-5.577-3.4-.95a91.683 91.683 0 0 0 -13.72-2.719l-8.139 5.776a15.541 15.541 0 0 0 -6.28 15.407.761.761 0 0 0 .384.537z" fill="#ffffff" data-original="#000000" style=""/><path xmlns="http://www.w3.org/2000/svg" d="m194.3 127.8a26.841 26.841 0 0 0 2.636 1.044l11.209 3.689 1.892-5.218c-3.2.308-7.158.555-11.689.555-1.298 0-2.654-.025-4.048-.07z" fill="#ffffff" data-original="#000000" style=""/><path xmlns="http://www.w3.org/2000/svg" d="m339.893 179.4a30.381 30.381 0 0 0 -10.337-1.815 31.106 31.106 0 0 0 -28.067 44.247 30.348 30.348 0 0 0 17.277 15.781 31.043 31.043 0 0 0 38.4-42.432 30.343 30.343 0 0 0 -17.273-15.781zm2.176 22.434a5 5 0 0 1 -6.259-3.292 3.342 3.342 0 0 0 -2.068-2.179 3.476 3.476 0 0 0 -4.269 4.756 3.339 3.339 0 0 0 1.9 1.736 13.413 13.413 0 0 1 8.017 17.208 13.487 13.487 0 0 1 -12.169 8.872 4.983 4.983 0 0 1 -9.364-3.382 13.313 13.313 0 0 1 -3.869-6.011 5 5 0 1 1 9.55-2.967 3.345 3.345 0 0 0 2.069 2.179 3.475 3.475 0 0 0 4.266-4.754 3.333 3.333 0 0 0 -1.9-1.736 13.412 13.412 0 0 1 -8.016-17.21 13.485 13.485 0 0 1 11.684-8.842l.064-.178a4.992 4.992 0 0 1 9.449 3.219 13.309 13.309 0 0 1 4.2 6.324 5 5 0 0 1 -3.285 6.256z" fill="#ffffff" data-original="#000000" style=""/><path xmlns="http://www.w3.org/2000/svg" d="m33.303 44.394-12.84 84.306 23.841 8.78 29.867-83.034z" fill="#ffffff" data-original="#000000" style=""/><path xmlns="http://www.w3.org/2000/svg" d="m341.948 87.345a5 5 0 0 0 -6.4 3l-3.948 10.88a5 5 0 1 0 9.4 3.411l3.948-10.885a5 5 0 0 0 -3-6.406z" fill="#ffffff" data-original="#000000" style=""/><path xmlns="http://www.w3.org/2000/svg" d="m350.843 77.482 15.386-42.425a5 5 0 1 0 -9.4-3.41l-15.386 42.425a5 5 0 1 0 9.4 3.41z" fill="#ffffff" data-original="#000000" style=""/><path xmlns="http://www.w3.org/2000/svg" d="m397.1 45.5a5 5 0 0 0 -6.4 3l-15.159 41.8a5 5 0 1 0 9.4 3.41l15.158-41.8a5 5 0 0 0 -2.999-6.41z" fill="#ffffff" data-original="#000000" style=""/><path xmlns="http://www.w3.org/2000/svg" d="m406.17 35.148 3.175-8.753a5 5 0 0 0 -9.4-3.41l-3.175 8.753a5 5 0 1 0 9.4 3.41z" fill="#ffffff" data-original="#000000" style=""/><path xmlns="http://www.w3.org/2000/svg" d="m405.282 133.157a5 5 0 0 0 6.405-3l3.947-10.884a5 5 0 0 0 -9.4-3.41l-3.948 10.884a5 5 0 0 0 2.996 6.41z" fill="#ffffff" data-original="#000000" style=""/><path xmlns="http://www.w3.org/2000/svg" d="m421.534 103.008 15.386-42.424a5 5 0 1 0 -9.4-3.41l-15.387 42.426a5 5 0 1 0 9.4 3.41z" fill="#ffffff" data-original="#000000" style=""/><path xmlns="http://www.w3.org/2000/svg" d="m91.694 292.148h-.017a5 5 0 0 0 -.015 10l5.859.019h.016a5 5 0 0 0 .015-10z" fill="#ffffff" data-original="#000000" style=""/><path xmlns="http://www.w3.org/2000/svg" d="m113.4 302.218 40.971.193h.024a5 5 0 0 0 .023-10l-40.971-.193h-.024a5 5 0 0 0 -.023 10z" fill="#ffffff" data-original="#000000" style=""/><path xmlns="http://www.w3.org/2000/svg" d="m136.179 273.639h.018a5 5 0 0 0 .016-10l-5.858-.019a5 5 0 1 0 -.033 10z" fill="#ffffff" data-original="#000000" style=""/><path xmlns="http://www.w3.org/2000/svg" d="m114.456 273.569a5 5 0 0 0 .03-10l-32.353-.192h-.033a5 5 0 0 0 -.029 10l32.353.192z" fill="#ffffff" data-original="#000000" style=""/><path xmlns="http://www.w3.org/2000/svg" d="m483.655 389.312-13.076 9.221a5 5 0 1 0 5.763 8.172l13.076-9.221a5 5 0 1 0 -5.763-8.172z" fill="#ffffff" data-original="#000000" style=""/><path xmlns="http://www.w3.org/2000/svg" d="m457.5 407.754-13.075 9.22a5 5 0 1 0 5.762 8.172l13.076-9.221a5 5 0 1 0 -5.763-8.171z" fill="#ffffff" data-original="#000000" style=""/><path xmlns="http://www.w3.org/2000/svg" d="m431.352 426.2-13.076 9.221a5 5 0 1 0 5.763 8.172l13.076-9.221a5 5 0 1 0 -5.763-8.172z" fill="#ffffff" data-original="#000000" style=""/><path xmlns="http://www.w3.org/2000/svg" d="m379.049 463.079-13.076 9.221a5 5 0 1 0 5.763 8.171l13.075-9.22a5 5 0 1 0 -5.762-8.172z" fill="#ffffff" data-original="#000000" style=""/><path xmlns="http://www.w3.org/2000/svg" d="m405.2 444.638-13.076 9.22a5 5 0 1 0 5.763 8.172l13.076-9.221a5 5 0 1 0 -5.763-8.171z" fill="#ffffff" data-original="#000000" style=""/></g></svg>
