<svg id="Layer_1" data-name="Layer 1" xmlns="http://www.w3.org/2000/svg" viewBox="0 0 686 473"><defs><style>.cls-1{fill:#060606;}.cls-2{fill:#010101;}.cls-3{fill:#2c7dbe;}.cls-4{fill:#75c447;}.cls-5{fill:#faab10;}.cls-6{fill:#f77529;}.cls-7{fill:#8e3496;}.cls-8{fill:#cf222c;}</style></defs><path class="cls-1" d="M353.17,142.49a87.52,87.52,0,1,1-34.17,6.9,87.19,87.19,0,0,1,34.17-6.9m0-3.06A90.85,90.85,0,1,0,444,230.27a90.85,90.85,0,0,0-90.85-90.84Z"/><path class="cls-2" d="M353.17,164.91A65.37,65.37,0,1,1,307,184.05a64.9,64.9,0,0,1,46.22-19.14m0-3.07a68.44,68.44,0,1,0,68.43,68.43,68.43,68.43,0,0,0-68.43-68.43Z"/><circle class="cls-3" cx="367.38" cy="177.07" r="6.53" transform="translate(-30.86 89.14) rotate(-13.28)"/><path class="cls-3" d="M370.58,204c.82-1,1.64-2,2.45-3.05l1.6-2a5.11,5.11,0,0,1,1.56-1.58,1.56,1.56,0,0,1,1.27,0,10.74,10.74,0,0,1,2,1.5c.76.59,1.48,1.21,2.18,1.86a31.79,31.79,0,0,1,2.55,2.64c.74.84,1.59,2.54,3,1.95a2.36,2.36,0,0,0,1.18-1.74c.22-1-.58-2.23-1-3.1a38.15,38.15,0,0,0-2.12-3.6,32.94,32.94,0,0,0-8-8.46,27.18,27.18,0,0,0-5.43-3.07,10.76,10.76,0,0,1-7.15.3c-4-1.19-6.11-5.74-5.67-7,0,0-18.22-7.16-34.87,3.13,0,0-2.58,4,2.12,4.47,0,0,8.16-5.14,21-4.47,0,0,3.47-.34,2.91,4.47l-.49,12.8a32.83,32.83,0,0,1,3.6-.21A31.38,31.38,0,0,1,370.58,204Z"/><circle class="cls-4" cx="404.97" cy="216.62" r="6.53" transform="translate(80.52 541.67) rotate(-73.2)"/><path class="cls-4" d="M384.63,232.53l3,.44,2.52.38a4.83,4.83,0,0,1,2.15.55A1.54,1.54,0,0,1,393,235a11.49,11.49,0,0,1-.3,2.46c-.13.94-.3,1.88-.51,2.81a33.2,33.2,0,0,1-1,3.54c-.36,1.06-1.4,2.65-.18,3.56a2.37,2.37,0,0,0,2.1.14c1-.31,1.63-1.63,2.16-2.46a38.16,38.16,0,0,0,2-3.65,32.89,32.89,0,0,0,3.27-11.18,27.13,27.13,0,0,0-.09-6.24,10.76,10.76,0,0,1-3.86-6c-1-4.07,1.87-8.17,3.22-8.44,0,0-3-19.34-20.28-28.54,0,0-4.77-.19-2.79,4.09,0,0,8.55,4.45,14.45,15.89,0,0,2,2.83-2.39,4.77l-10.45,5.57a31.44,31.44,0,0,1,6.38,19C384.71,231,384.68,231.78,384.63,232.53Z"/><circle class="cls-5" cx="388.87" cy="268.94" r="6.53" transform="translate(-26.32 42.74) rotate(-6.09)"/><path class="cls-5" d="M402.77,229.56s.28,9.65-6.84,20.37c0,0-1.47,3.16-5.32.23l-9.17-5.9a31.61,31.61,0,0,1-16.36,15.22l1.11,2.95c.3.79.6,1.59.91,2.39a5,5,0,0,1,.56,2.14,1.54,1.54,0,0,1-.59,1.12,10.89,10.89,0,0,1-2.29.93c-.89.35-1.8.66-2.71.93a34.32,34.32,0,0,1-3.57.86c-1.11.2-3,.06-3.2,1.57a2.34,2.34,0,0,0,.9,1.9c.74.7,2.21.63,3.2.69a36.26,36.26,0,0,0,4.17,0,33.23,33.23,0,0,0,11.37-2.6,27.17,27.17,0,0,0,5.4-3.12,10.71,10.71,0,0,1,3.38-6.31c3.07-2.86,8-2.35,8.94-1.3,0,0,15.43-12,15-31.62C407.7,230,405.54,225.75,402.77,229.56Z"/><circle class="cls-6" cx="336.26" cy="281.55" r="6.53" transform="translate(-92.06 375.78) rotate(-52.35)"/><path class="cls-6" d="M333.37,254.83l-2.8,3.41-1.63,2a4.87,4.87,0,0,1-1.57,1.56,1.49,1.49,0,0,1-1.27,0,11.26,11.26,0,0,1-2-1.52c-.75-.6-1.46-1.23-2.16-1.88-.88-.85-1.72-1.74-2.52-2.68s-1.55-2.56-3-2a2.37,2.37,0,0,0-1.2,1.73c-.23,1,.56,2.23,1,3.12a37.12,37.12,0,0,0,2.07,3.62,33.25,33.25,0,0,0,7.91,8.56,27.71,27.71,0,0,0,5.4,3.13,10.78,10.78,0,0,1,7.16-.21c4,1.24,6,5.81,5.57,7.11,0,0,18.14,7.38,34.92-2.71,0,0,2.62-4-2.07-4.49,0,0-8.23,5-21.07,4.21,0,0-3.47.3-2.85-4.5l.58-11.51-.77,0A31.43,31.43,0,0,1,333.37,254.83Z"/><circle class="cls-7" cx="298.85" cy="241.75" r="6.53" transform="translate(-31.43 438.4) rotate(-69.74)"/><path class="cls-7" d="M321.91,226.07l-1.71-.24-4.45-.63-2.53-.35a5.17,5.17,0,0,1-2.16-.53,1.55,1.55,0,0,1-.69-1.07,10.77,10.77,0,0,1,.28-2.45q.18-1.43.48-2.82a36.48,36.48,0,0,1,1-3.55c.36-1.06,1.38-2.66.16-3.56a2.34,2.34,0,0,0-2.1-.12c-1,.32-1.61,1.64-2.14,2.48a34.14,34.14,0,0,0-2,3.66,33,33,0,0,0-3.18,11.22,27.62,27.62,0,0,0,.15,6.23,10.8,10.8,0,0,1,3.92,6c1,4.06-1.81,8.18-3.16,8.47,0,0,3.18,19.31,20.53,28.36,0,0,4.78.15,2.76-4.11,0,0-8.59-4.38-14.59-15.77,0,0-2.06-2.81,2.35-4.79l11.26-6.12a31.34,31.34,0,0,1-4.42-16.11A32.32,32.32,0,0,1,321.91,226.07Z"/><circle class="cls-8" cx="314.5" cy="189.7" r="6.53" transform="translate(-2.88 374.54) rotate(-61.32)"/><path class="cls-8" d="M339.62,201.79l-.18-.47-1.56-4.22-.88-2.4a5.08,5.08,0,0,1-.55-2.15,1.55,1.55,0,0,1,.6-1.11,11.48,11.48,0,0,1,2.3-.91c.89-.35,1.8-.65,2.72-.92a33.55,33.55,0,0,1,3.57-.82c1.11-.2,3,0,3.21-1.55a2.35,2.35,0,0,0-.89-1.91c-.73-.7-2.2-.65-3.19-.71a36.42,36.42,0,0,0-4.18,0,33,33,0,0,0-11.38,2.51,27.64,27.64,0,0,0-5.42,3.08,10.74,10.74,0,0,1-3.43,6.29c-3.09,2.83-8.06,2.28-8.95,1.23,0,0-15.51,11.94-15.27,31.51,0,0,2.13,4.28,4.93.48,0,0-.21-9.64,7-20.32,0,0,1.5-3.14,5.33-.19l11.35,7.43A31.63,31.63,0,0,1,339.62,201.79Z"/><path class="cls-2" d="M276.78,228a.93.93,0,0,0,.1-.16,1.8,1.8,0,0,0,.15-.31,3.11,3.11,0,0,0,.14-.43,3,3,0,0,0,.09-.52,1.57,1.57,0,0,0-.09-.65.87.87,0,0,0-.39-.39,2.41,2.41,0,0,0-.74-.22c-.3,0-.67-.08-1.1-.11l-4.63-.29.16-2.5,4.63.29A15.74,15.74,0,0,1,277,223a3.52,3.52,0,0,1,1.42.59,2.58,2.58,0,0,1,.87,1.18,4.8,4.8,0,0,1,.2,2,3.42,3.42,0,0,1-.69,1.94Z"/><path class="cls-2" d="M278.18,217.49a1.39,1.39,0,0,0-.06-.77,1.49,1.49,0,0,0-.42-.58,2.43,2.43,0,0,0-.67-.4,4.21,4.21,0,0,0-.83-.23l-4.62-.78.42-2.47,4.62.78a6.58,6.58,0,0,1,1.71.54,3.87,3.87,0,0,1,1.29,1,3.62,3.62,0,0,1,.72,1.44,4.43,4.43,0,0,1,0,1.86,4.33,4.33,0,0,1-.67,1.78,3.59,3.59,0,0,1-1.18,1.09,3.92,3.92,0,0,1-1.53.48,5.67,5.67,0,0,1-1.74-.06l-4.62-.78.41-2.47,4.62.79a3.69,3.69,0,0,0,.87.05,2.29,2.29,0,0,0,.77-.15,1.61,1.61,0,0,0,.58-.41A1.33,1.33,0,0,0,278.18,217.49Z"/><path class="cls-2" d="M277.7,208.94l4.29,1.3-.73,2.39L272.54,210l.57-1.86L278.6,206l-4.43-1.34.73-2.4,8.72,2.65-.58,1.91Z"/><path class="cls-2" d="M280.61,194.37l-1.05,2.4,6.35,2.78-1,2.29-6.35-2.77-1.05,2.41-2-.88,3.1-7.1Z"/><path class="cls-2" d="M280.12,190.77l1.11-2,9.5,1.69-1.24,2.22-1.83-.39-1.18,2.12,1.29,1.34L286.52,198Zm5.89,1.06-2.86-.67,2.05,2.12Z"/><path class="cls-2" d="M292.39,188l-7.2-5.58,2.14-2.77a5.28,5.28,0,0,1,1.51-1.36,4.14,4.14,0,0,1,1.65-.53,4,4,0,0,1,1.68.19,5.23,5.23,0,0,1,1.57.85,5,5,0,0,1,1.29,1.41,4.07,4.07,0,0,1,.56,1.62,4,4,0,0,1-.16,1.71,5.21,5.21,0,0,1-.89,1.69Zm-.21-7.19a2.87,2.87,0,0,0-.84-.48,2.31,2.31,0,0,0-.84-.14,1.94,1.94,0,0,0-1.44.79l-.61.79,3.75,2.91.61-.79a1.92,1.92,0,0,0,.39-.8,1.75,1.75,0,0,0,0-.82,2.34,2.34,0,0,0-.36-.77A3.11,3.11,0,0,0,292.18,180.84Z"/><path class="cls-2" d="M300.91,174.85l1.57,1.52L298,181l-6.54-6.34,4.43-4.58,1.57,1.52-2.7,2.78.93.89,2.3-2.37,1.46,1.41-2.31,2.37,1,1Z"/><path class="cls-2" d="M300.74,165.87l5.07,3.61-2.28-5.79,2.07-1.62,3,9.24-1.64,1.28-8.28-5.1Z"/><path class="cls-2" d="M316,163.77l1.15,1.85-5.52,3.43-4.81-7.74,5.42-3.37,1.15,1.85-3.29,2.05.68,1.09,2.81-1.75,1.07,1.72-2.81,1.75.76,1.22Z"/><path class="cls-2" d="M315.38,161.27a4.62,4.62,0,0,1-.43-1.62,4.46,4.46,0,0,1,.2-1.7,4.83,4.83,0,0,1,.87-1.58,4.72,4.72,0,0,1,1.59-1.21,4.6,4.6,0,0,1,2.3-.5,3.58,3.58,0,0,1,1.93.67l-1.13,2.06a1.65,1.65,0,0,0-1.12-.46,2.1,2.1,0,0,0-.56.07,2.72,2.72,0,0,0-.5.19,2,2,0,0,0-.75.59,1.92,1.92,0,0,0-.33.78,2.21,2.21,0,0,0,0,.85,3,3,0,0,0,.27.82,2.7,2.7,0,0,0,.52.76,2.17,2.17,0,0,0,.7.52,2,2,0,0,0,.83.19,1.91,1.91,0,0,0,.88-.2,2.76,2.76,0,0,0,.45-.28,2.07,2.07,0,0,0,.38-.4,1.75,1.75,0,0,0,.26-.51,1.66,1.66,0,0,0,0-.6l2.37.21A2.55,2.55,0,0,1,324,161a3.5,3.5,0,0,1-.57,1,4.66,4.66,0,0,1-.85.87,5,5,0,0,1-1,.64,4.15,4.15,0,0,1-1.85.44,4.8,4.8,0,0,1-1.77-.33,5.1,5.1,0,0,1-1.51-1A4.72,4.72,0,0,1,315.38,161.27Z"/><path class="cls-2" d="M325.73,161.6l-3.24-8.51,2.34-.89,3.24,8.51Z"/><path class="cls-2" d="M330.54,155.18l1.2,4.31-2.41.68-2.45-8.78,1.88-.53,4.77,3.48-1.25-4.46,2.41-.67,2.45,8.77-1.91.54Z"/><path class="cls-2" d="M342.49,157.2a4.37,4.37,0,0,1-1.92-.12,4.82,4.82,0,0,1-1.59-.83,4.75,4.75,0,0,1-1.14-1.34,4.65,4.65,0,0,1-.58-1.65,4.54,4.54,0,0,1,.1-1.76,4.61,4.61,0,0,1,.75-1.6,4.74,4.74,0,0,1,1.31-1.21,4.67,4.67,0,0,1,1.8-.65,4.53,4.53,0,0,1,1.92.13,4.64,4.64,0,0,1,1.59.83,4.69,4.69,0,0,1,1.13,1.34,4.58,4.58,0,0,1,.48,3.4,4.69,4.69,0,0,1-2.06,2.81A4.42,4.42,0,0,1,342.49,157.2Zm-2.71-4.28a3.24,3.24,0,0,0,.26.87,2.32,2.32,0,0,0,.49.7,2,2,0,0,0,.72.44,2,2,0,0,0,.95.07,1.92,1.92,0,0,0,.89-.35,1.83,1.83,0,0,0,.57-.64,2.18,2.18,0,0,0,.25-.82,3.32,3.32,0,0,0,0-.89,3.24,3.24,0,0,0-.26-.87,2.16,2.16,0,0,0-.49-.69,2.14,2.14,0,0,0-.73-.43,2,2,0,0,0-.93-.06,1.93,1.93,0,0,0-.89.33,2,2,0,0,0-.57.64,2.48,2.48,0,0,0-.26.81A3.32,3.32,0,0,0,339.78,152.92Z"/><path class="cls-2" d="M353.17,150.19a6,6,0,0,0-.81-.39,5.89,5.89,0,0,0-.78-.27,2.78,2.78,0,0,0-.84-.11,1.22,1.22,0,0,0-.53.12.34.34,0,0,0-.19.35.37.37,0,0,0,.12.29,1,1,0,0,0,.34.21c.15.06.33.11.54.17l.72.19a10.79,10.79,0,0,1,1.14.39,3.5,3.5,0,0,1,.89.53,2.19,2.19,0,0,1,.57.74,2.71,2.71,0,0,1,.22,1.09,2.84,2.84,0,0,1-.26,1.39,2.53,2.53,0,0,1-.77.91,3.37,3.37,0,0,1-1.1.51,5.91,5.91,0,0,1-1.25.19,7.32,7.32,0,0,1-1-.05,7.72,7.72,0,0,1-1-.19,8.41,8.41,0,0,1-1-.3,7.44,7.44,0,0,1-.9-.41l1-2.23a7,7,0,0,0,.95.47,6.45,6.45,0,0,0,.94.32,3.53,3.53,0,0,0,1.07.13,1,1,0,0,0,.56-.13.33.33,0,0,0,.16-.29.41.41,0,0,0-.17-.32,1.35,1.35,0,0,0-.45-.23l-.66-.19c-.24-.06-.5-.13-.78-.22a5.9,5.9,0,0,1-1.05-.41,2.78,2.78,0,0,1-.74-.52,1.83,1.83,0,0,1-.43-.67,2.65,2.65,0,0,1-.16-.88,3,3,0,0,1,.23-1.35,2.86,2.86,0,0,1,.73-1,3.19,3.19,0,0,1,1.06-.61,3.94,3.94,0,0,1,1.29-.24,4.57,4.57,0,0,1,1,.07c.31,0,.62.13.92.21a8.21,8.21,0,0,1,.84.3l.7.31Z"/><path class="cls-2" d="M361.35,152.28l-.56,4.45-2.48-.31,1.12-9,1.94.23,3.06,5,.57-4.6,2.48.31-1.12,9-2-.25Z"/><path class="cls-2" d="M372,156.57a1.34,1.34,0,0,0,.77,0,1.46,1.46,0,0,0,.61-.36,2.16,2.16,0,0,0,.45-.64,3.56,3.56,0,0,0,.3-.81l1.16-4.54,2.43.62-1.16,4.54a6,6,0,0,1-.68,1.66,3.69,3.69,0,0,1-1.08,1.2,3.45,3.45,0,0,1-1.49.6,4.45,4.45,0,0,1-1.86-.11,4.38,4.38,0,0,1-1.72-.82,3.51,3.51,0,0,1-1-1.26,4.15,4.15,0,0,1-.36-1.57,6.5,6.5,0,0,1,.21-1.73l1.16-4.54,2.42.62L371,154a4.24,4.24,0,0,0-.12.86,2.2,2.2,0,0,0,.09.78,1.37,1.37,0,0,0,1,1Z"/><path class="cls-2" d="M383.45,160.35l-.78,2-6.07-2.31,3.24-8.52,6,2.27-.78,2-3.62-1.38-.46,1.2,3.1,1.18-.73,1.9-3.09-1.18-.51,1.34Z"/><path class="cls-2" d="M389.24,155.45l-1.12,6.12,4.28-4.52,2.34,1.2-7.12,6.6-1.86-.95,1.12-9.66Z"/><path class="cls-2" d="M394,168.77a4.43,4.43,0,0,1-1.35-1.38,4.84,4.84,0,0,1-.63-1.68,4.69,4.69,0,0,1,.05-1.75,4.53,4.53,0,0,1,.67-1.62,4.57,4.57,0,0,1,2.87-1.93,4.89,4.89,0,0,1,1.79,0,4.73,4.73,0,0,1,1.77.72,4.66,4.66,0,0,1,1.35,1.38,4.56,4.56,0,0,1,.62,1.68,4.74,4.74,0,0,1-.05,1.76,4.64,4.64,0,0,1-.68,1.6,4.31,4.31,0,0,1-1.24,1.24,4.59,4.59,0,0,1-3.4.72A4.49,4.49,0,0,1,394,168.77Zm.84-5a3.24,3.24,0,0,0-.39.82,2.48,2.48,0,0,0-.1.85,2,2,0,0,0,.24.81,2,2,0,0,0,.66.68,2,2,0,0,0,.9.35,2.19,2.19,0,0,0,.85-.1,2.68,2.68,0,0,0,.74-.44,3.78,3.78,0,0,0,.59-.67,3.24,3.24,0,0,0,.39-.82,2.44,2.44,0,0,0,.09-.84,2.18,2.18,0,0,0-.25-.81,2,2,0,0,0-.66-.67,2.08,2.08,0,0,0-.88-.35,2,2,0,0,0-.85.1,2.31,2.31,0,0,0-.74.43A3.36,3.36,0,0,0,394.88,163.77Z"/><path class="cls-2" d="M407,176.39,405.54,178l-4.8-4.38,6.15-6.73,4.71,4.3-1.47,1.61-2.86-2.61-.87.95,2.45,2.23-1.37,1.5L405,172.63l-1,1.06Z"/><path class="cls-2" d="M414.45,178.71a6.38,6.38,0,0,0-.22-.86c-.08-.25-.18-.5-.3-.78a3,3,0,0,0-.46-.71A1.18,1.18,0,0,0,413,176a.36.36,0,0,0-.4.08.4.4,0,0,0-.14.28,1,1,0,0,0,.07.39,3.33,3.33,0,0,0,.21.52c.1.2.2.43.31.68a8.68,8.68,0,0,1,.44,1.13,3.45,3.45,0,0,1,.17,1,2,2,0,0,1-.2.92,2.65,2.65,0,0,1-.68.87,2.88,2.88,0,0,1-1.23.7,2.7,2.7,0,0,1-1.2,0,3.35,3.35,0,0,1-1.1-.52,5.39,5.39,0,0,1-1-.83,6.52,6.52,0,0,1-.62-.82,7.64,7.64,0,0,1-.54-.92,8.77,8.77,0,0,1-.41-1,6.34,6.34,0,0,1-.27-1l2.35-.66a7,7,0,0,0,.25,1,8,8,0,0,0,.36.93,4.17,4.17,0,0,0,.59.89,1.16,1.16,0,0,0,.47.36.34.34,0,0,0,.32-.08.44.44,0,0,0,.14-.33,1.74,1.74,0,0,0-.12-.49c-.08-.19-.17-.4-.28-.62s-.22-.48-.34-.75a7.48,7.48,0,0,1-.36-1.07,2.79,2.79,0,0,1-.07-.89,1.86,1.86,0,0,1,.23-.77,2.55,2.55,0,0,1,.57-.69,3,3,0,0,1,1.18-.68,2.67,2.67,0,0,1,1.22-.08,3.19,3.19,0,0,1,1.16.42,3.92,3.92,0,0,1,1,.83,4,4,0,0,1,.58.79,7.69,7.69,0,0,1,.74,1.68c.09.26.16.51.22.73Z"/><path class="cls-2" d="M411.27,184.49l7.36-5.37,3.68,5-1.76,1.28-2.21-3-1.22.9,1.8,2.47L417.28,187l-1.8-2.47-2.74,2Z"/><path class="cls-2" d="M419.22,192.53a1.34,1.34,0,0,0,.53.55,1.54,1.54,0,0,0,.69.18,2.35,2.35,0,0,0,.77-.11,4.23,4.23,0,0,0,.79-.35l4.07-2.33,1.24,2.17L423.25,195a6,6,0,0,1-1.67.67,3.88,3.88,0,0,1-1.62.06,3.74,3.74,0,0,1-1.46-.65,4.52,4.52,0,0,1-1.21-1.42,4.28,4.28,0,0,1-.61-1.8,3.56,3.56,0,0,1,.22-1.6,3.85,3.85,0,0,1,.88-1.34,5.88,5.88,0,0,1,1.38-1.06l4.07-2.33,1.24,2.17L420.4,190a4.06,4.06,0,0,0-.7.51,2.17,2.17,0,0,0-.5.61,1.48,1.48,0,0,0-.19.68A1.32,1.32,0,0,0,419.22,192.53Z"/><path class="cls-2" d="M424.45,203.36l-2,.87-2.57-6,8.37-3.6,2.52,5.85-2,.87-1.53-3.56-1.18.5,1.31,3.05-1.86.8-1.31-3-1.33.57Z"/><path class="cls-2" d="M422.78,205.1l8.71-2.68,1.23,4a2.87,2.87,0,0,1,.1,1.26,3.2,3.2,0,0,1-1.18,2,3.06,3.06,0,0,1-1,.56,3.29,3.29,0,0,1-1.52.11,3,3,0,0,1-1.36-.59l-2.64,2.82-.83-2.69,2.21-2.36-.28-.9-2.67.83Zm5.5.93.46,1.51a.57.57,0,0,0,.37.34,1.22,1.22,0,0,0,.75,0,1,1,0,0,0,.62-.43.66.66,0,0,0,.11-.52l-.45-1.44Z"/><path class="cls-2" d="M426.92,212.41l5.78,3.24-.77-4,2.15-.41,1.3,6.83-1.83.35-5.73-3,.77,4-2.15.41-1.35-7.1Z"/><path class="cls-2" d="M426.8,224.77a4.48,4.48,0,0,1,.26-1.92,4.8,4.8,0,0,1,.94-1.52,4.69,4.69,0,0,1,1.41-1,4.58,4.58,0,0,1,1.69-.46,4.51,4.51,0,0,1,1.75.22,4.4,4.4,0,0,1,1.54.86,4.76,4.76,0,0,1,1.12,1.39,4.62,4.62,0,0,1,.52,1.84,4.44,4.44,0,0,1-.26,1.91,4.66,4.66,0,0,1-.95,1.52,4.7,4.7,0,0,1-3.09,1.49,4.33,4.33,0,0,1-1.75-.22,4.61,4.61,0,0,1-2.65-2.24A4.47,4.47,0,0,1,426.8,224.77Zm4.46-2.4a2.88,2.88,0,0,0-.88.19,2.33,2.33,0,0,0-.73.44,1.93,1.93,0,0,0-.49.69,1.89,1.89,0,0,0-.14.94,2,2,0,0,0,.28.92,1.91,1.91,0,0,0,.6.6,2.36,2.36,0,0,0,.8.32,3,3,0,0,0,.89.05,2.88,2.88,0,0,0,.88-.19,2.09,2.09,0,0,0,.73-.45,1.92,1.92,0,0,0,.61-1.62,2,2,0,0,0-.28-.91,1.91,1.91,0,0,0-.59-.61,2.39,2.39,0,0,0-.79-.32A3,3,0,0,0,431.26,222.37Z"/><path class="cls-2" d="M279.12,269.6l7.91-4.54,2.08,3.63a2.81,2.81,0,0,1,.38,1.2,3.2,3.2,0,0,1-.15,1.2,3.49,3.49,0,0,1-.56,1.06,3.06,3.06,0,0,1-.88.77,3.35,3.35,0,0,1-1.46.44,3,3,0,0,1-1.45-.28L283,276.42l-1.4-2.45,1.62-2.78-.46-.82-2.43,1.4Zm5.57-.31.79,1.37a.54.54,0,0,0,.43.24,1.14,1.14,0,0,0,.72-.18,1,1,0,0,0,.52-.57.66.66,0,0,0,0-.52l-.76-1.31Z"/><path class="cls-2" d="M289.6,281.49l-1.75,1.32-3.91-5.19,7.27-5.49,3.85,5.09-1.74,1.32-2.34-3.1-1,.78,2,2.64-1.62,1.22-2-2.64-1.15.87Z"/><path class="cls-2" d="M297.28,284a5.27,5.27,0,0,0-.25-.86,6.58,6.58,0,0,0-.32-.76,2.71,2.71,0,0,0-.48-.7,1.19,1.19,0,0,0-.44-.32.35.35,0,0,0-.39.1.4.4,0,0,0-.14.28,1.29,1.29,0,0,0,.08.39,4.2,4.2,0,0,0,.23.52q.15.28.33.66a8.56,8.56,0,0,1,.48,1.12,3.77,3.77,0,0,1,.2,1,2.14,2.14,0,0,1-.18.93,2.84,2.84,0,0,1-.66.89,2.79,2.79,0,0,1-1.21.73,2.53,2.53,0,0,1-1.19,0,3.55,3.55,0,0,1-1.12-.48,5.87,5.87,0,0,1-1-.81,7.53,7.53,0,0,1-.65-.8A9.23,9.23,0,0,1,290,285a7.5,7.5,0,0,1-.44-1,6,6,0,0,1-.3-.94l2.33-.73a8.51,8.51,0,0,0,.28,1,7.64,7.64,0,0,0,.39.92,3.82,3.82,0,0,0,.62.87,1.13,1.13,0,0,0,.47.34.33.33,0,0,0,.32-.08.39.39,0,0,0,.13-.34,1.56,1.56,0,0,0-.13-.49c-.08-.18-.18-.38-.3-.61s-.24-.47-.36-.73a7,7,0,0,1-.39-1.06,2.59,2.59,0,0,1-.1-.89,1.78,1.78,0,0,1,.21-.78,2.64,2.64,0,0,1,.55-.7,3,3,0,0,1,1.16-.72,2.78,2.78,0,0,1,1.21-.12,3.11,3.11,0,0,1,1.17.39,3.92,3.92,0,0,1,1,.8,4.84,4.84,0,0,1,.6.77,6.19,6.19,0,0,1,.46.83c.13.29.24.56.34.83s.17.5.23.72Z"/><path class="cls-2" d="M294.9,290.13l6.09-6.79,1.86,1.67-6.08,6.79Z"/><path class="cls-2" d="M298.28,293.18l5.48-7.29,2.8,2.11a5.11,5.11,0,0,1,1.37,1.48,4.2,4.2,0,0,1,.56,1.65,4,4,0,0,1-.17,1.68,5.51,5.51,0,0,1-2.21,2.89,4.14,4.14,0,0,1-1.61.59,4.23,4.23,0,0,1-1.72-.13,5.22,5.22,0,0,1-1.7-.88Zm7.19-.31a3.13,3.13,0,0,0,.46-.86,2.3,2.3,0,0,0,.13-.84,2,2,0,0,0-.23-.77,2,2,0,0,0-.59-.66l-.8-.6-2.85,3.8.8.6a2,2,0,0,0,.81.38,1.71,1.71,0,0,0,.81,0,2.32,2.32,0,0,0,.78-.37A3.3,3.3,0,0,0,305.47,292.87Z"/><path class="cls-2" d="M312.87,300.39l-1.12,1.88-5.57-3.34,4.68-7.82,5.48,3.28-1.12,1.87-3.33-2-.66,1.1,2.84,1.7-1,1.74-2.84-1.7-.74,1.23Z"/><path class="cls-2" d="M317.46,300.11l-1.89,4.06-2.27-1.05,3.84-8.27,1.77.82,1.36,5.75,2-4.21,2.27,1.06-3.83,8.26-1.81-.83Z"/><path class="cls-2" d="M323.69,302.77a4.58,4.58,0,0,1,2.15-2.55,4.86,4.86,0,0,1,1.72-.52,4.69,4.69,0,0,1,2,.25,4.58,4.58,0,0,1,2,1.24,3.53,3.53,0,0,1,.91,1.83l-2.24.68a1.82,1.82,0,0,0-.15-.63,1.62,1.62,0,0,0-.34-.47,1.79,1.79,0,0,0-.44-.34,3,3,0,0,0-.49-.22,1.88,1.88,0,0,0-.95-.1,2.06,2.06,0,0,0-.79.32,2.33,2.33,0,0,0-.59.62,2.94,2.94,0,0,0-.39.77,3.17,3.17,0,0,0-.16.91,2.47,2.47,0,0,0,.15.86,2,2,0,0,0,.46.71,1.82,1.82,0,0,0,.77.47,2.71,2.71,0,0,0,.51.11,1.76,1.76,0,0,0,.56,0,1.66,1.66,0,0,0,.53-.18,1.36,1.36,0,0,0,.47-.4l1.55,1.81a2.62,2.62,0,0,1-.88.65,3.56,3.56,0,0,1-1.11.33,5,5,0,0,1-1.22,0,5.52,5.52,0,0,1-1.17-.24,4.37,4.37,0,0,1-1.63-1,4.82,4.82,0,0,1-1-1.48,4.94,4.94,0,0,1-.42-1.74A4.77,4.77,0,0,1,323.69,302.77Z"/><path class="cls-2" d="M331.57,310.11l2.21-8.84,2.43.6L334,310.71Z"/><path class="cls-2" d="M339.78,302.61,342,303l1.6,9.51-2.51-.42-.24-1.85-2.4-.4-.82,1.67-2.52-.42Zm1,5.91-.33-2.92-1.3,2.64Z"/><path class="cls-2" d="M345,312.59l.59-9.09,2.49.16-.44,6.91,4.12.27-.14,2.18Z"/><path class="cls-2" d="M355.81,313l-.77-9.08,3.49-.3a5.24,5.24,0,0,1,2,.19,4.21,4.21,0,0,1,1.51.85,4.12,4.12,0,0,1,1,1.37,5.45,5.45,0,0,1,.45,1.73,5.39,5.39,0,0,1-.17,1.91,4.08,4.08,0,0,1-.81,1.51,4.22,4.22,0,0,1-1.37,1,5.3,5.3,0,0,1-1.85.48Zm5.15-5a3.08,3.08,0,0,0-.22-1,2.23,2.23,0,0,0-.46-.71,1.89,1.89,0,0,0-.69-.42,1.94,1.94,0,0,0-.87-.1l-1,.08.4,4.73,1-.08a2.06,2.06,0,0,0,.85-.25,1.82,1.82,0,0,0,.61-.56,2.35,2.35,0,0,0,.33-.79A3.27,3.27,0,0,0,361,308Z"/><path class="cls-2" d="M369.7,311.24a4.34,4.34,0,0,1-1.93,0,4.84,4.84,0,0,1-1.64-.71,4.92,4.92,0,0,1-1.23-1.26,4.71,4.71,0,0,1-.69-1.61,4.62,4.62,0,0,1,.62-3.4,4.6,4.6,0,0,1,1.22-1.31,4.69,4.69,0,0,1,1.75-.76,4.34,4.34,0,0,1,1.93,0,4.66,4.66,0,0,1,1.64.72,4.72,4.72,0,0,1,1.22,1.26,4.61,4.61,0,0,1,.68,1.6,4.35,4.35,0,0,1,0,1.76,4.64,4.64,0,0,1-.64,1.64,4.55,4.55,0,0,1-1.22,1.3A4.44,4.44,0,0,1,369.7,311.24Zm-3-4.08a3.23,3.23,0,0,0,.32.85,2.17,2.17,0,0,0,.54.66,2,2,0,0,0,.74.39,2.06,2.06,0,0,0,1,0,2,2,0,0,0,.87-.41,1.82,1.82,0,0,0,.51-.67,2.16,2.16,0,0,0,.2-.84,3.31,3.31,0,0,0-.06-.89,3.11,3.11,0,0,0-.32-.85,2.17,2.17,0,0,0-.54-.66,2,2,0,0,0-.75-.37,1.87,1.87,0,0,0-.94,0,1.82,1.82,0,0,0-1.38,1.06,2.36,2.36,0,0,0-.21.84A3.26,3.26,0,0,0,366.7,307.16Z"/><path class="cls-2" d="M376.8,304.61l1.48,4.22-2.36.84-3-8.6,1.84-.65,5,3.16-1.54-4.37,2.36-.84,3,8.6-1.87.66Z"/><path class="cls-2" d="M392.11,302.92a4.47,4.47,0,0,1-1.85.55,4.77,4.77,0,0,1-1.78-.23,4.82,4.82,0,0,1-1.53-.86,4.51,4.51,0,0,1-1.11-1.35,4.56,4.56,0,0,1-.52-1.69,4.73,4.73,0,0,1,.15-1.76,4.82,4.82,0,0,1,.82-1.59,4.49,4.49,0,0,1,1.46-1.22,4.29,4.29,0,0,1,1.85-.55,4.6,4.6,0,0,1,3.3,1.1,4.53,4.53,0,0,1,1.62,3,4.64,4.64,0,0,1-.15,1.74,4.75,4.75,0,0,1-.81,1.6A4.48,4.48,0,0,1,392.11,302.92Zm-4-3.08a2.72,2.72,0,0,0,.54.72,2.22,2.22,0,0,0,.7.49,1.88,1.88,0,0,0,.82.16,2,2,0,0,0,.92-.26,1.87,1.87,0,0,0,.72-.63,1.89,1.89,0,0,0,.31-.79,2.34,2.34,0,0,0,0-.87,3.1,3.1,0,0,0-.32-.83,2.91,2.91,0,0,0-.53-.72,2,2,0,0,0-.71-.48,2.08,2.08,0,0,0-.83-.16,2,2,0,0,0-.9.27,2.11,2.11,0,0,0-.72.62,2,2,0,0,0-.31.79,2.28,2.28,0,0,0,0,.86A3.21,3.21,0,0,0,388.09,299.84Z"/><path class="cls-2" d="M398.52,291.54a6.79,6.79,0,0,0-.89.12c-.25,0-.51.12-.8.2a3.05,3.05,0,0,0-.77.37,1.26,1.26,0,0,0-.38.39.35.35,0,0,0,0,.4.37.37,0,0,0,.26.18,1.34,1.34,0,0,0,.39,0,4.24,4.24,0,0,0,.55-.15l.71-.23a11.24,11.24,0,0,1,1.17-.3,3.63,3.63,0,0,1,1,0,2.16,2.16,0,0,1,.88.31,2.79,2.79,0,0,1,.78.79,2.74,2.74,0,0,1,.54,1.31,2.45,2.45,0,0,1-.14,1.18,3.48,3.48,0,0,1-.65,1,5.7,5.7,0,0,1-.94.83,7.69,7.69,0,0,1-.89.52,8.65,8.65,0,0,1-1,.42,8.94,8.94,0,0,1-1,.29,5.83,5.83,0,0,1-1,.15l-.36-2.42a6.26,6.26,0,0,0,1.05-.12,6.73,6.73,0,0,0,1-.24,3.92,3.92,0,0,0,1-.48,1,1,0,0,0,.41-.42.3.3,0,0,0,0-.32.41.41,0,0,0-.32-.18,1.33,1.33,0,0,0-.5.06,6.53,6.53,0,0,0-.65.2l-.78.24a6.88,6.88,0,0,1-1.1.22,2.66,2.66,0,0,1-.9,0,2,2,0,0,1-.74-.33,2.56,2.56,0,0,1-.61-.65,2.88,2.88,0,0,1-.53-1.25,2.78,2.78,0,0,1,.06-1.22,3.69,3.69,0,0,1,.56-1.1,4.29,4.29,0,0,1,.95-.9,4.52,4.52,0,0,1,.86-.47,8,8,0,0,1,.89-.33c.3-.08.59-.15.87-.2l.75-.13Z"/><path class="cls-2" d="M401,291.64a4.64,4.64,0,0,1-.83-1.45,4.47,4.47,0,0,1-.25-1.7,4.9,4.9,0,0,1,3.75-4.41,3.47,3.47,0,0,1,2,.15l-.56,2.28a1.68,1.68,0,0,0-.61-.2,1.91,1.91,0,0,0-.59.05,1.78,1.78,0,0,0-.52.21,2.78,2.78,0,0,0-.43.31,1.86,1.86,0,0,0-.7,1.6,2.51,2.51,0,0,0,.23.83,3,3,0,0,0,.46.72,3.05,3.05,0,0,0,.7.6,2.3,2.3,0,0,0,.82.32,2,2,0,0,0,.84,0,1.93,1.93,0,0,0,.8-.42,2.25,2.25,0,0,0,.36-.39,2.12,2.12,0,0,0,.27-.49,1.68,1.68,0,0,0,.11-.55,1.46,1.46,0,0,0-.1-.6l2.34-.41a2.48,2.48,0,0,1,.12,1.09,4,4,0,0,1-.28,1.12,5.87,5.87,0,0,1-.6,1.06,5.29,5.29,0,0,1-.81.88,4.23,4.23,0,0,1-1.67.91,4.78,4.78,0,0,1-1.8.13,5,5,0,0,1-1.7-.53A4.6,4.6,0,0,1,401,291.64Z"/><path class="cls-2" d="M406.35,280.69l1.56-1.68,8.83,3.89L415,284.76l-1.69-.81-1.65,1.78.95,1.61-1.74,1.87Zm5.48,2.42-2.62-1.33,1.49,2.54Z"/><path class="cls-2" d="M417.61,281.77l-7.36-5.37,2.46-3.38a2.79,2.79,0,0,1,1-.83,3,3,0,0,1,1.15-.36,3.4,3.4,0,0,1,1.19.08,3.18,3.18,0,0,1,1.07.49,3.24,3.24,0,0,1,1,1.16,2.89,2.89,0,0,1,.34,1.44l3.85.41-1.67,2.29-3.2-.36-.56.76,2.27,1.65Zm-2.55-4.95.93-1.28a.56.56,0,0,0,.05-.5,1.14,1.14,0,0,0-.47-.58,1,1,0,0,0-.72-.24.62.62,0,0,0-.47.22l-.9,1.23Z"/><path d="M327.51,222.8l-4.05-1.59.44-1.12,4.05,1.59Z"/><path d="M326.79,219l1.9,1-.54,1.07-3.88-2,.43-.83,2.76-.54-2-1,.54-1.07,3.87,2-.43.84Z"/><path d="M329.5,212.44l-.73,1,2.71,1.91-.69,1-2.7-1.91-.73,1-.85-.6,2.13-3Z"/><path d="M333.76,211.15l.76.71-2.11,2.27-3.18-3,2.07-2.23.77.71L330.8,211l.45.42,1.08-1.16.71.66L332,212.08l.5.46Z"/><path d="M336.85,209.52a1.61,1.61,0,0,1-.6,1,2.21,2.21,0,0,1-.73.38,2,2,0,0,1-.8.07,2.05,2.05,0,0,1-.8-.27,2.52,2.52,0,0,1-.72-.64,2.2,2.2,0,0,1-.39-.78,2.17,2.17,0,0,1-.05-.84,2.32,2.32,0,0,1,.27-.79,2.37,2.37,0,0,1,.59-.68,2.41,2.41,0,0,1,.48-.3,2,2,0,0,1,.51-.15,1.77,1.77,0,0,1,.51,0,1.31,1.31,0,0,1,.48.12l-.28,1.09a.87.87,0,0,0-.55-.09,1,1,0,0,0-.53.21,1,1,0,0,0-.26.31,1,1,0,0,0-.09.38,1.22,1.22,0,0,0,.07.41,1.26,1.26,0,0,0,.22.41,1.31,1.31,0,0,0,.35.32,1.14,1.14,0,0,0,.38.16,1,1,0,0,0,.39,0,1.23,1.23,0,0,0,.38-.19,1.28,1.28,0,0,0,.46-.91l-.6.47-.53-.68,1.41-1.1,1.43,1.82-.77.61Z"/><path d="M338.22,209l-2.05-3.84,1.76-.94a1.33,1.33,0,0,1,.58-.16,1.54,1.54,0,0,1,.57.08,1.63,1.63,0,0,1,.49.29,1.48,1.48,0,0,1,.36.43,1.51,1.51,0,0,1,0,1.39l1.56,1-1.19.63L339,207l-.4.21.63,1.18Zm-.07-2.66.66-.36a.25.25,0,0,0,.13-.2.54.54,0,0,0-.08-.35.48.48,0,0,0-.26-.25.27.27,0,0,0-.25,0l-.64.34Z"/><path d="M341.8,207.19l-1.57-4.06,1.11-.43,1.58,4.06Z"/><path d="M343.49,206.5l-1.08-4.22,1.62-.41a2.52,2.52,0,0,1,1-.07,2,2,0,0,1,.78.28,2.21,2.21,0,0,1,.57.57,2.29,2.29,0,0,1,.34.78,2.4,2.4,0,0,1,.08.91,2,2,0,0,1-.27.77,1.88,1.88,0,0,1-.56.6,2.54,2.54,0,0,1-.83.38Zm2-2.77a1.39,1.39,0,0,0-.18-.43,1.15,1.15,0,0,0-.28-.3.83.83,0,0,0-.35-.14.87.87,0,0,0-.42,0l-.46.12.56,2.19.46-.11a.91.91,0,0,0,.38-.19.79.79,0,0,0,.24-.31,1,1,0,0,0,.1-.4A1.45,1.45,0,0,0,345.52,203.73Z"/><path d="M348.1,201.09l1.09-.11,1.95,4.17-1.2.12-.35-.81-1.16.12-.16.87-1.22.13Zm1.21,2.59-.52-1.3-.26,1.39Z"/><path d="M351.36,205.16l.12-4.35,1.68,0a2.5,2.5,0,0,1,.94.2,1.88,1.88,0,0,1,.67.49,1.94,1.94,0,0,1,.4.7,2.34,2.34,0,0,1,.12.84,2.53,2.53,0,0,1-.18.9,1.89,1.89,0,0,1-.47.67,1.77,1.77,0,0,1-.7.42,2.37,2.37,0,0,1-.9.13Zm2.72-2.11a1.65,1.65,0,0,0-.06-.46,1,1,0,0,0-.18-.36.83.83,0,0,0-.31-.24.87.87,0,0,0-.4-.09l-.48,0-.06,2.27h.47a.93.93,0,0,0,.42-.07.82.82,0,0,0,.32-.23,1,1,0,0,0,.2-.36A1.63,1.63,0,0,0,354.08,203.05Z"/><path d="M355.59,206.34l.34-.93-.35,0,.14-1.12.95.11-.13,1.12-.45.92Z"/><path d="M361.74,203.62l-.32-.29a3,3,0,0,0-.32-.22,1.22,1.22,0,0,0-.37-.17.61.61,0,0,0-.26,0,.18.18,0,0,0-.14.14.2.2,0,0,0,0,.15.79.79,0,0,0,.13.14c.06,0,.13.1.22.15a2.86,2.86,0,0,1,.3.19,3.82,3.82,0,0,1,.47.33,1.64,1.64,0,0,1,.34.36,1.08,1.08,0,0,1,.16.42,1.27,1.27,0,0,1-.05.53,1.41,1.41,0,0,1-.3.6,1.24,1.24,0,0,1-.48.31,1.81,1.81,0,0,1-.58.09,3.1,3.1,0,0,1-1.06-.25,4.78,4.78,0,0,1-.45-.23,4.38,4.38,0,0,1-.42-.28,2.24,2.24,0,0,1-.36-.31l.77-.88a3.11,3.11,0,0,0,.37.35,4.17,4.17,0,0,0,.38.27,1.75,1.75,0,0,0,.47.2.47.47,0,0,0,.28,0,.15.15,0,0,0,.11-.11.2.2,0,0,0,0-.17.74.74,0,0,0-.18-.17l-.27-.17a3,3,0,0,1-.33-.21,3.21,3.21,0,0,1-.43-.33,1.34,1.34,0,0,1-.26-.34.94.94,0,0,1-.11-.37,1.05,1.05,0,0,1,0-.42,1.44,1.44,0,0,1,.29-.58,1.23,1.23,0,0,1,.46-.36,1.82,1.82,0,0,1,.57-.13,1.88,1.88,0,0,1,.62.07,2.09,2.09,0,0,1,.44.16l.4.22.34.25.28.24Z"/><path d="M365.21,207l-.39,1L362,206.76l1.66-4,2.82,1.17-.4,1-1.71-.71-.23.57,1.46.6-.37.9-1.47-.61-.26.64Z"/><path d="M365.19,208.12l2.21-3.75,1.72,1a1.45,1.45,0,0,1,.44.41,1.58,1.58,0,0,1,.22.54,1.55,1.55,0,0,1,0,.57,1.3,1.3,0,0,1-.19.52,1.41,1.41,0,0,1-.5.53,1.45,1.45,0,0,1-.67.23l0,1.84-1.16-.68,0-1.54-.39-.23-.67,1.15Zm2.23-1.44.65.39a.29.29,0,0,0,.24,0,.53.53,0,0,0,.26-.24.5.5,0,0,0,.08-.36.32.32,0,0,0-.13-.21l-.62-.37Z"/><path d="M371.83,207.22,370.71,210l2.44-1.7,1,.79-4,2.39-.77-.62,1.46-4.41Z"/><path d="M371.52,212.67l3.07-3.08.85.84-3.07,3.09Z"/><path d="M374.4,212.36a2.18,2.18,0,0,1,.71-.37,2,2,0,0,1,.81-.1,2.32,2.32,0,0,1,2.05,1.85,1.66,1.66,0,0,1-.1,1l-1.08-.3a.63.63,0,0,0,.1-.29.88.88,0,0,0,0-.28,1.06,1.06,0,0,0-.09-.25,1.91,1.91,0,0,0-.14-.21.93.93,0,0,0-.36-.28.81.81,0,0,0-.4-.07,1,1,0,0,0-.4.09,1.71,1.71,0,0,0-.35.21,1.34,1.34,0,0,0-.3.33,1.14,1.14,0,0,0-.16.38.94.94,0,0,0,0,.41,1,1,0,0,0,.19.38.77.77,0,0,0,.18.18.84.84,0,0,0,.49.2,1,1,0,0,0,.29,0l.16,1.12a1.28,1.28,0,0,1-.52,0,1.68,1.68,0,0,1-.53-.15,2.88,2.88,0,0,1-.5-.3,3.11,3.11,0,0,1-.41-.4,1.93,1.93,0,0,1-.4-.81,2.08,2.08,0,0,1,0-.86,2.13,2.13,0,0,1,.28-.8A2.26,2.26,0,0,1,374.4,212.36Z"/><path d="M375.37,217.22l3.64-2.38.66,1L376,218.22Z"/><path d="M377.27,220.49a2,2,0,0,1-.25-.89,2.21,2.21,0,0,1,.56-1.56,2,2,0,0,1,.65-.52,2.14,2.14,0,0,1,.82-.23,2.33,2.33,0,0,1,.83.09,2.3,2.3,0,0,1,.75.41,1.91,1.91,0,0,1,.57.71,2.08,2.08,0,0,1,.24.89,2,2,0,0,1-.13.84,2,2,0,0,1-.43.72,2.16,2.16,0,0,1-1.46.74,2,2,0,0,1-.83-.09,2.1,2.1,0,0,1-.75-.4A1.91,1.91,0,0,1,377.27,220.49Zm1.51-1.88a1.24,1.24,0,0,0-.35.25.78.78,0,0,0-.24.33.86.86,0,0,0-.09.39,1.06,1.06,0,0,0,.11.44,1,1,0,0,0,.3.35,1.1,1.1,0,0,0,.37.16,1.27,1.27,0,0,0,.82-.16,1.24,1.24,0,0,0,.35-.25,1.12,1.12,0,0,0,.24-.33,1,1,0,0,0,.08-.39.9.9,0,0,0-.12-.43.85.85,0,0,0-.29-.35.87.87,0,0,0-.37-.16,1.13,1.13,0,0,0-.41,0A1.36,1.36,0,0,0,378.78,218.61Z"/><path d="M377.53,223.27l1-.15-.13-.32,1.05-.42.35.89-1,.42-1,.05Z"/><path d="M328.84,248.08a2,2,0,0,1-.41-.82,2.5,2.5,0,0,1,0-.86,2.22,2.22,0,0,1,.28-.78,2.16,2.16,0,0,1,1.3-1,2.39,2.39,0,0,1,.84-.06,2.23,2.23,0,0,1,.82.25,2.26,2.26,0,0,1,.69.59,2.3,2.3,0,0,1,.41.83,2.5,2.5,0,0,1,0,.86,2.37,2.37,0,0,1-.29.78,2.23,2.23,0,0,1-.55.63,2,2,0,0,1-.75.38,2.18,2.18,0,0,1-1.65-.19A2,2,0,0,1,328.84,248.08ZM330,246a1.26,1.26,0,0,0-.3.31,1.12,1.12,0,0,0-.17.37.9.9,0,0,0,0,.4,1,1,0,0,0,.2.41,1,1,0,0,0,.36.29.78.78,0,0,0,.39.08,1,1,0,0,0,.41-.09,1.53,1.53,0,0,0,.37-.21,1.42,1.42,0,0,0,.29-.31,1,1,0,0,0,.17-.37.9.9,0,0,0,0-.4,1,1,0,0,0-.2-.41,1,1,0,0,0-.35-.29,1,1,0,0,0-.79,0A1.51,1.51,0,0,0,330,246Z"/><path d="M330.88,250.46l3-3.17,1.46,1.37a1.31,1.31,0,0,1,.34.5,1.58,1.58,0,0,1,.1.56,1.6,1.6,0,0,1-.11.57,1.35,1.35,0,0,1-.3.47,1.52,1.52,0,0,1-1.3.48l-.43,1.79-1-.92.35-1.5-.32-.3-.92,1Zm2.5-.91.55.51a.27.27,0,0,0,.24.05.49.49,0,0,0,.3-.18.51.51,0,0,0,.16-.33.33.33,0,0,0-.08-.24l-.53-.49Z"/><path d="M334.24,253.51l2.48-3.57,1.37.95a2.48,2.48,0,0,1,.69.68,2.12,2.12,0,0,1,.29.78,1.82,1.82,0,0,1-.05.8,2.6,2.6,0,0,1-1,1.42,1.86,1.86,0,0,1-.76.31,1.9,1.9,0,0,1-.82,0,2.68,2.68,0,0,1-.83-.38Zm3.42-.28a1.6,1.6,0,0,0,.21-.41,1.17,1.17,0,0,0,0-.41.81.81,0,0,0-.12-.36.92.92,0,0,0-.29-.3l-.39-.28-1.3,1.87.39.27a1.08,1.08,0,0,0,.4.17,1,1,0,0,0,.39,0,1.26,1.26,0,0,0,.36-.19A1.46,1.46,0,0,0,337.66,253.23Z"/><path d="M341.44,256.61l-.46.93-2.77-1.4,2-3.89,2.72,1.38-.46.93-1.66-.84-.27.55,1.41.71-.44.87-1.41-.71-.31.61Z"/><path d="M343.66,256.27l-.68,2-1.13-.38,1.38-4.12.88.29,1,2.65.7-2.1,1.13.38-1.37,4.13-.91-.3Z"/><path d="M349.32,255.46l.53,2,1-1.77,1.29.17-1.86,2.69-.19,1.43-1.18-.15.19-1.44L348,255.29Z"/><path d="M355.43,259.06a.63.63,0,0,0,.35-.11.72.72,0,0,0,.23-.26,1.2,1.2,0,0,0,.11-.35,1.85,1.85,0,0,0,0-.41l-.13-2.24,1.19-.07.13,2.24a3,3,0,0,1-.06.85,1.91,1.91,0,0,1-.32.71,1.64,1.64,0,0,1-.59.48,2.06,2.06,0,0,1-.86.22,2.09,2.09,0,0,1-.9-.12,1.72,1.72,0,0,1-.64-.43,2,2,0,0,1-.39-.66,3.14,3.14,0,0,1-.16-.82l-.13-2.23,1.19-.07.14,2.23a1.84,1.84,0,0,0,.06.41,1.19,1.19,0,0,0,.16.34.59.59,0,0,0,.25.22A.58.58,0,0,0,355.43,259.06Z"/><path d="M359.27,257.46l.47,2.09-1.17.26-.95-4.25.91-.2,2.19,1.78-.48-2.16,1.17-.26.94,4.25-.93.21Z"/><path d="M363.35,258.61l-1.43-4.11,1.13-.39,1.43,4.11Z"/><path d="M365.46,257.89,363.59,254l1.51-.72A2.52,2.52,0,0,1,366,253a2,2,0,0,1,.82.13,2,2,0,0,1,.67.44,2.51,2.51,0,0,1,.49.7,2.47,2.47,0,0,1,.24.88,2,2,0,0,1-.1.81,1.93,1.93,0,0,1-.44.7,2.75,2.75,0,0,1-.74.53Zm1.46-3.12a1.34,1.34,0,0,0-.26-.38,1,1,0,0,0-.32-.24.83.83,0,0,0-.38-.07.88.88,0,0,0-.41.1l-.43.2,1,2.05.43-.2a1.14,1.14,0,0,0,.34-.26,1,1,0,0,0,.17-.35,1.11,1.11,0,0,0,0-.41A1.6,1.6,0,0,0,366.92,254.77Z"/><path d="M368.11,251.59l.91-.6,3.66,2.79-1,.67-.69-.56-1,.64.26.85-1,.68Zm2.27,1.74-1.07-.91.41,1.35Z"/><path d="M373.27,253.3l-2.91-3.24,1.24-1.12a2.33,2.33,0,0,1,.82-.5,1.86,1.86,0,0,1,1.6.12,2.57,2.57,0,0,1,.67.53,2.35,2.35,0,0,1,.48.77,1.92,1.92,0,0,1-.09,1.6,2.38,2.38,0,0,1-.57.72Zm.51-3.4a1.93,1.93,0,0,0-.35-.3,1.2,1.2,0,0,0-.39-.13.72.72,0,0,0-.38,0,1,1,0,0,0-.36.21l-.36.32,1.52,1.68.36-.32a.91.91,0,0,0,.25-.34.83.83,0,0,0,.07-.38,1.18,1.18,0,0,0-.1-.4A1.51,1.51,0,0,0,373.78,249.9Z"/><path d="M368.42,244.43l-.33-17.88-.32,17.6-.65.11-.9.1-.46,0-.45,0c-.3,0-.61,0-.91,0l-.45,0-.46,0h-.22l-.23,0-.45,0c-.3,0-.6-.08-.9-.14l-.9-.16-.91-.19-.45-.1-.46-.09c-.31-.07-.63-.12-.94-.17l-.25,0-.12,0h-.13l-.23,0h-1.12l-.12,0-.25,0-.25,0-.47.08.63-.25.39-.12.2-.06.21,0,.1,0h.1l.2,0,.2,0,.21,0c.27,0,.55,0,.83,0h.42l.42,0,.42,0,.42,0,.85.08.86.07.43,0h.43a6.4,6.4,0,0,0,.88-.06l.21,0,.22,0,.42-.08.42-.1.42-.12c.28-.08.55-.18.82-.27s.54-.21.8-.33l.1,0V242l-.11-18.23v-.07l-.07,0-.55.17-.28.08-.28.07-.28.07-.14,0-.14,0-.57.11-.28.05-.29,0-.28.05-.29,0-.34,0a.14.14,0,0,1,0,.07l.37,0,.29,0,.29,0,.28,0,.29-.05.57-.1.14,0,.14,0,.29-.06.28-.07.28-.08.48-.14-.1,18.05c-.22.1-.46.18-.69.27s-.53.18-.8.25l-.41.11-.41.1-.41.08-.21,0-.21,0a7.55,7.55,0,0,1-.83,0H362l-.42,0-.84-.08-.85-.1-.42,0-.43,0-.44,0h-.43a6.33,6.33,0,0,0-.87,0l-.22,0-.22,0-.22,0h-.11l-.11,0-.2,0-.22.06-.42.13c-.27.1-.54.2-.81.32s-.53.24-.78.38l-.19.11-.19.11-.19.11-.11-8.36a1.7,1.7,0,0,1-.24.09l-.1,8.27-.19-.11-.19-.11-.19-.11c-.26-.14-.52-.26-.79-.38s-.53-.22-.81-.32l-.42-.13-.21-.06-.21,0-.1,0h-.12l-.21,0-.22,0-.22,0a6.47,6.47,0,0,0-.88,0h-.43l-.43,0-.43,0-.43,0-.85.1-.84.08-.42,0H344a7.7,7.7,0,0,1-.83,0l-.21,0-.2,0-.42-.08-.41-.1-.4-.11c-.27-.07-.54-.16-.81-.25s-.46-.17-.69-.27l-.1-18.05.49.14.28.08.28.07.28.06.14,0,.14,0,.58.1.28.05.29,0,.29,0,.28,0,.44.05a.2.2,0,0,0,0-.07l-.42,0-.29,0-.28-.05-.29,0-.28-.05-.57-.11-.14,0-.14,0L341,224l-.28-.07-.28-.08-.55-.17-.07,0v.07l-.1,18.23v.1l.09,0c.27.12.53.23.8.33l.82.27.42.12.42.1.43.08.21,0,.22,0a6.25,6.25,0,0,0,.87.06h.43l.44,0,.85-.07.85-.08.43,0,.42,0,.42,0h.42c.28,0,.55,0,.83,0l.2,0a1.2,1.2,0,0,1,.2,0l.21,0h.09l.11,0,.2,0,.2.06.39.12c.22.08.43.16.63.25l-.47-.08-.24,0-.25,0-.13,0h-1.11l-.24,0h-.13l-.12,0-.24,0c-.32.05-.64.1-.94.17l-.46.09-.46.1-.9.19-.91.16c-.3.06-.6.09-.9.14l-.45,0-.22,0h-.23l-.45,0-.46,0c-.3,0-.6,0-.91,0l-.45,0-.45,0-.91-.1-.65-.11-.32-17.6L338,244.43v.26l.27.05.92.19.94.14.47.05.47,0c.32,0,.64,0,.95,0h.48l.47,0h.48l.47,0,.95-.1.93-.14.92-.16.46-.08.45-.07.9-.13.22,0h1.08l.22,0h.21l.22,0,.21,0,.42.09a7.63,7.63,0,0,1,.81.26l.19.08.18.09.18.1.08.05,0,0h1.3l0,0,.08-.05.18-.1.19-.09.19-.08a7,7,0,0,1,.81-.26l.41-.09.22,0,.21,0h.21l.22,0h1.09l.22,0,.89.13.46.07.45.08.92.16.94.14.94.1.47,0h.48l.47,0h.48c.32,0,.63,0,1,0l.47,0,.47-.05.94-.14.93-.19.26-.05Z"/><path d="M356.22,234.91a.48.48,0,0,1-.24-.07.11.11,0,0,1,0-.15.09.09,0,0,1,.14,0,.23.23,0,0,0,.18,0,.33.33,0,0,0,.23-.18.91.91,0,0,0,0-.59,7.92,7.92,0,0,0-1.46-2.86.1.1,0,0,1,0-.14.1.1,0,0,1,.14,0,7.82,7.82,0,0,1,1.49,2.93,1.15,1.15,0,0,1-.05.73.6.6,0,0,1-.37.29Z"/><path d="M356.76,234.52a.11.11,0,0,1-.08,0,.11.11,0,0,1,0-.15.83.83,0,0,0,.21-.65,2,2,0,0,0-.22-.73c-.05-.14-.11-.27-.16-.4a11.89,11.89,0,0,0-1.09-2.13,3.84,3.84,0,0,1-.06-4.17,5.36,5.36,0,0,0,.79-2.78,5.57,5.57,0,0,0-.81-2.77c-.08-.15-.17-.3-.27-.46-.49-.81-1.05-1.74-.74-2.61.05-.15.1-.32.15-.48l.08-.24-.11.06-.35.19a.11.11,0,0,1-.08,0,1.51,1.51,0,0,0-.84,0,1,1,0,0,0-.62.5,1.26,1.26,0,0,0-.07.73,3,3,0,0,1-.61,2l-.3.44a6,6,0,0,0-.75,1.3,5.4,5.4,0,0,0-.18,2.54,6.37,6.37,0,0,0,.46,1.5l.16.42a2.7,2.7,0,0,1,.18,1.45,2.73,2.73,0,0,1-.63,1.26,8.94,8.94,0,0,1-1,.95,12.08,12.08,0,0,1-1.5,1.14l-.1.06a2.58,2.58,0,0,0-.45.32.71.71,0,0,0-.25.53.37.37,0,0,0,.33.36.12.12,0,0,1,.1.11.1.1,0,0,1-.1.1h0a.57.57,0,0,1-.54-.55.92.92,0,0,1,.31-.7,2.69,2.69,0,0,1,.49-.34l.1-.07a11.62,11.62,0,0,0,1.47-1.12,7.82,7.82,0,0,0,1-.93,2.23,2.23,0,0,0,.41-2.5c-.05-.14-.1-.27-.16-.41a6.64,6.64,0,0,1-.47-1.55,5.55,5.55,0,0,1,.2-2.64,6,6,0,0,1,.77-1.35c.1-.15.2-.29.29-.44a2.77,2.77,0,0,0,.58-1.86,1.38,1.38,0,0,1,.09-.84,1.21,1.21,0,0,1,.76-.61,1.66,1.66,0,0,1,.91,0,2.27,2.27,0,0,1,.31-.17l.34-.19a.11.11,0,0,1,.12,0,.13.13,0,0,1,0,.12l-.16.48-.15.49c-.28.77.25,1.66.72,2.44.1.15.19.31.27.45a5.82,5.82,0,0,1,.84,2.88,5.47,5.47,0,0,1-.82,2.89,3.69,3.69,0,0,0,.05,3.94,11.39,11.39,0,0,1,1.11,2.17c.05.13.11.26.17.39a2.73,2.73,0,0,1,.23.8,1,1,0,0,1-.28.82A.11.11,0,0,1,356.76,234.52Z"/><path d="M349.08,233.91h0a2,2,0,0,1-.82-.33.88.88,0,0,1-.32-.86,1.12,1.12,0,0,1,.39-.53l2.4-2.26a.11.11,0,0,1,.14.16l-2.4,2.25a1.08,1.08,0,0,0-.33.44.63.63,0,0,0,.26.63,1.69,1.69,0,0,0,.73.3.1.1,0,0,1,.08.12A.11.11,0,0,1,349.08,233.91Z"/><path d="M350,234.71a1.24,1.24,0,0,1-.78-.29,1.05,1.05,0,0,1-.25-.84,2.14,2.14,0,0,1,.26-.81,7.85,7.85,0,0,1,1.91-2.48.11.11,0,0,1,.15,0,.1.1,0,0,1,0,.14,7.54,7.54,0,0,0-1.86,2.41,2.31,2.31,0,0,0-.25.74.87.87,0,0,0,.2.67.92.92,0,0,0,.83.19.1.1,0,0,1,.14,0,.1.1,0,0,1,0,.14A.59.59,0,0,1,350,234.71Z"/><path d="M351.47,235.22a1.73,1.73,0,0,1-1-.25,1.25,1.25,0,0,1-.33-1.07,4,4,0,0,1,1.42-2.81.11.11,0,0,1,.15,0,.1.1,0,0,1,0,.14,3.78,3.78,0,0,0-1.35,2.66,1.06,1.06,0,0,0,.25.9,2.17,2.17,0,0,0,1.29.18.09.09,0,0,1,.11.09.1.1,0,0,1-.09.12Z"/><path d="M352.76,235.72a1.14,1.14,0,0,1-.58-.15,1.31,1.31,0,0,1-.58-1.08,2.81,2.81,0,0,1,.28-1.18,2,2,0,0,1,.11-.26,6.21,6.21,0,0,0,.3-.82.11.11,0,0,1,.13-.08.11.11,0,0,1,.08.13,6.19,6.19,0,0,1-.32.85l-.11.26a2.77,2.77,0,0,0-.26,1.09,1.09,1.09,0,0,0,.48.91,1.29,1.29,0,0,0,1.26-.11,6.91,6.91,0,0,0,.24-3.08.11.11,0,0,1,.21,0,7.33,7.33,0,0,1-.26,3.21.1.1,0,0,1-.05.06A1.84,1.84,0,0,1,352.76,235.72Z"/><path d="M354,235.62a1.17,1.17,0,0,1-.45-.09.11.11,0,0,1,0-.14.1.1,0,0,1,.14,0,.93.93,0,0,0,.92-.11A1.57,1.57,0,0,0,355,234a3.79,3.79,0,0,0-.71-2.15.1.1,0,0,1,0-.14.09.09,0,0,1,.14,0,4,4,0,0,1,.75,2.27,1.72,1.72,0,0,1-.53,1.42A1.14,1.14,0,0,1,354,235.62Z"/><path d="M355.24,235.35a.61.61,0,0,1-.49-.23.1.1,0,1,1,.16-.12.47.47,0,0,0,.62.05.8.8,0,0,0,.3-.66,2.27,2.27,0,0,0-.16-.79,8.85,8.85,0,0,0-.84-1.89.1.1,0,0,1,0-.15.1.1,0,0,1,.14,0,8.42,8.42,0,0,1,.87,1.94,2.53,2.53,0,0,1,.17.86,1,1,0,0,1-.39.82A.69.69,0,0,1,355.24,235.35Z"/><path d="M351.62,220.67h0a2.83,2.83,0,0,1-1.35-.81c-.16-.14-.31-.27-.45-.37-.63-.44-1.28-.86-1.83-1.21l-.62-.4c-1-.63-2-1.28-3-2a22.58,22.58,0,0,1-3-2.85c-.59-.62-1.19-1.27-1.79-1.84l-.54-.49a.05.05,0,0,0-.08,0s-.05,0,0,.08a6.66,6.66,0,0,0,2.22,3.3c.2.16.42.33.64.48a9.06,9.06,0,0,1,1.5,1.29.1.1,0,1,1-.16.13,9.19,9.19,0,0,0-1.47-1.25c-.21-.16-.44-.32-.64-.49a6.89,6.89,0,0,1-2.29-3.4.3.3,0,0,1,.13-.32.29.29,0,0,1,.34,0l.53.5c.61.57,1.21,1.22,1.8,1.85a22.16,22.16,0,0,0,2.93,2.82c1,.72,2,1.37,3,2l.62.39c.56.35,1.21.78,1.84,1.22.15.1.3.24.47.38a2.71,2.71,0,0,0,1.23.76.1.1,0,0,1,.09.12A.1.1,0,0,1,351.62,220.67Z"/><path d="M343.07,216.72h0a8.79,8.79,0,0,1-4.58-3.58,1.14,1.14,0,0,1-.19-.45.47.47,0,0,1,.26-.48.6.6,0,0,1,.49.09,7.41,7.41,0,0,1,1.26.9.11.11,0,0,1-.15.15,6.87,6.87,0,0,0-1.21-.87c-.1,0-.22-.11-.31-.07a.25.25,0,0,0-.13.26.82.82,0,0,0,.16.36,8.56,8.56,0,0,0,4.47,3.49.1.1,0,0,1,.06.13A.1.1,0,0,1,343.07,216.72Z"/><path d="M343.23,217.74h0a17.25,17.25,0,0,1-3.68-2.12,3.4,3.4,0,0,1-1.22-1.39.78.78,0,0,1-.05-.53.54.54,0,0,1,.25-.25.49.49,0,0,1,.37,0,.1.1,0,0,1,.06.13.1.1,0,0,1-.13.07.29.29,0,0,0-.21,0,.25.25,0,0,0-.14.13.62.62,0,0,0,0,.39,3.32,3.32,0,0,0,1.16,1.29,16.82,16.82,0,0,0,3.63,2.1.09.09,0,0,1,.05.13A.1.1,0,0,1,343.23,217.74Z"/><path d="M343,218.74h0a9.73,9.73,0,0,1-4.16-2.66,1,1,0,0,1-.25-.65.52.52,0,0,1,.27-.38.37.37,0,0,1,.34,0,.11.11,0,0,1,0,.14.11.11,0,0,1-.15,0,.14.14,0,0,0-.14,0,.29.29,0,0,0-.15.21.77.77,0,0,0,.21.5,9.49,9.49,0,0,0,4.07,2.6.1.1,0,0,1,.06.13A.12.12,0,0,1,343,218.74Z"/><path d="M343.52,219.48h0a13.42,13.42,0,0,1-2.67-.52,3.06,3.06,0,0,1-1.61-1,1.18,1.18,0,0,1-.28-.72.8.8,0,0,1,.37-.7.11.11,0,0,1,.15,0,.1.1,0,0,1,0,.14.58.58,0,0,0-.27.52,1.09,1.09,0,0,0,.23.6,3,3,0,0,0,1.51.87,13.76,13.76,0,0,0,2.63.52.09.09,0,0,1,.09.11A.1.1,0,0,1,343.52,219.48Z"/><path d="M343.27,220.3h0a13.77,13.77,0,0,1-2.31-.2,2.09,2.09,0,0,1-.86-.29,1,1,0,0,1-.4-.64.69.69,0,0,1,.34-.68.1.1,0,0,1,.14,0,.1.1,0,0,1,0,.14.5.5,0,0,0-.23.48.76.76,0,0,0,.31.49,2,2,0,0,0,.77.26,13.49,13.49,0,0,0,2.28.19.11.11,0,0,1,.11.11A.11.11,0,0,1,343.27,220.3Z"/><path d="M341.89,221.56h-.1a2.13,2.13,0,0,1-.87-.17,1.07,1.07,0,0,1-.61-.68.75.75,0,0,1,.31-.86.1.1,0,0,1,.14,0,.11.11,0,0,1,0,.15.56.56,0,0,0-.21.63.91.91,0,0,0,.5.54,1.72,1.72,0,0,0,.78.15,4.21,4.21,0,0,0,2-.43.1.1,0,0,1,.14,0,.1.1,0,0,1-.05.14A4.35,4.35,0,0,1,341.89,221.56Z"/><path d="M342.33,222.87a1.57,1.57,0,0,1-.75-.18,1.15,1.15,0,0,1-.59-1.33.12.12,0,0,1,.13-.07.11.11,0,0,1,.07.14,1,1,0,0,0,.49,1.08,1.64,1.64,0,0,0,1.31,0,4.42,4.42,0,0,0,1.2-.71.11.11,0,0,1,.15,0,.11.11,0,0,1,0,.14,5.49,5.49,0,0,1-1.26.74A2.12,2.12,0,0,1,342.33,222.87Z"/><path d="M343,224.27a.86.86,0,0,1-.6-.19.88.88,0,0,1-.27-.67,2.41,2.41,0,0,1,.12-.66.1.1,0,0,1,.13-.07.11.11,0,0,1,.08.13,2.13,2.13,0,0,0-.12.6.68.68,0,0,0,.19.51.85.85,0,0,0,.65.13,4.51,4.51,0,0,0,2.22-1.28.11.11,0,0,1,.14,0,.1.1,0,0,1,0,.15,4.6,4.6,0,0,1-2.33,1.33Z"/><path d="M344.26,225.68a.75.75,0,0,1-.59-.33,1.19,1.19,0,0,1-.15-.7,2.89,2.89,0,0,1,.16-.66.12.12,0,0,1,.13-.07.1.1,0,0,1,.07.13,3.3,3.3,0,0,0-.15.62.92.92,0,0,0,.12.56.51.51,0,0,0,.45.24.73.73,0,0,0,.42-.26,4.79,4.79,0,0,0,.76-1.34.1.1,0,0,1,.13-.06.11.11,0,0,1,.06.14,4.69,4.69,0,0,1-.8,1.4.94.94,0,0,1-.54.33Z"/><path d="M345.24,226.33a.66.66,0,0,1-.44-.17,1.05,1.05,0,0,1-.32-.63.11.11,0,0,1,.08-.13.1.1,0,0,1,.12.09.89.89,0,0,0,.26.51.4.4,0,0,0,.47.07.68.68,0,0,0,.21-.34l.45-1.17a.11.11,0,0,1,.2.07l-.45,1.17a.87.87,0,0,1-.29.44A.5.5,0,0,1,345.24,226.33Z"/><path d="M346.2,226.53a.66.66,0,0,1-.65-.5.11.11,0,0,1,.08-.12.12.12,0,0,1,.13.08.45.45,0,0,0,.46.33.84.84,0,0,0,.57-.32,2.9,2.9,0,0,0,.35-.65l.28-.65a.09.09,0,0,1,.13,0,.1.1,0,0,1,.06.13l-.28.65a2.8,2.8,0,0,1-.38.7,1,1,0,0,1-.72.4Z"/><path d="M347.28,227.05a.87.87,0,0,1-.85-.62.11.11,0,0,1,.08-.13.1.1,0,0,1,.12.08.67.67,0,0,0,.65.46,1.09,1.09,0,0,0,.78-.4,2.41,2.41,0,0,0,.42-.85l.09-.31c.07-.21.13-.44.22-.65a.11.11,0,0,1,.14-.06.11.11,0,0,1,.05.14,6.6,6.6,0,0,0-.2.63l-.1.31a2.65,2.65,0,0,1-.46.92A1.24,1.24,0,0,1,347.28,227.05Z"/><path d="M348.53,227.39h-.14a.62.62,0,0,1-.51-.64.12.12,0,0,1,.11-.1.12.12,0,0,1,.1.12.41.41,0,0,0,.34.41.7.7,0,0,0,.59-.2,1.48,1.48,0,0,0,.34-.6,3.2,3.2,0,0,0,.19-1.26.11.11,0,1,1,.21,0,3.58,3.58,0,0,1-.2,1.34,1.7,1.7,0,0,1-.4.68A.94.94,0,0,1,348.53,227.39Z"/><path d="M349.49,227.41a.89.89,0,0,1-.55-.18.11.11,0,0,1,.14-.17.7.7,0,0,0,.73.07,1.23,1.23,0,0,0,.58-.57,4.35,4.35,0,0,0,.3-.81.09.09,0,0,1,.13-.07.11.11,0,0,1,.07.13,4.62,4.62,0,0,1-.32.85,1.54,1.54,0,0,1-.67.67A1.24,1.24,0,0,1,349.49,227.41Z"/><path d="M350.61,221.78a1.53,1.53,0,0,1-.94-.34,4.37,4.37,0,0,1-.78-.83l-.12-.15a12.19,12.19,0,0,0-4.14-3.37.11.11,0,0,1-.05-.14.12.12,0,0,1,.15,0,12.71,12.71,0,0,1,4.21,3.43l.11.15a4.31,4.31,0,0,0,.74.8,1.26,1.26,0,0,0,1.13.24.1.1,0,0,1,.13.06.1.1,0,0,1-.06.14A1.21,1.21,0,0,1,350.61,221.78Z"/><path d="M355.39,220.49h-.12a.09.09,0,0,1-.09-.11.1.1,0,0,1,.11-.1,1.42,1.42,0,0,0,1-.33,4.87,4.87,0,0,0,.68-.6l.2-.19a19.38,19.38,0,0,1,3.28-2.37l.84-.53a11.13,11.13,0,0,0,3.64-3.34,14.48,14.48,0,0,1,1.63-2.14.26.26,0,0,1,.3-.07.25.25,0,0,1,.16.26,4.22,4.22,0,0,1-.39,1.42,11.75,11.75,0,0,1-3.17,4.25.11.11,0,1,1-.14-.16,11.49,11.49,0,0,0,3.12-4.18,4,4,0,0,0,.37-1.34s0,0,0-.06a.07.07,0,0,0-.07,0,14.68,14.68,0,0,0-1.6,2.11,11.17,11.17,0,0,1-3.7,3.4l-.85.53a19.12,19.12,0,0,0-3.24,2.35,1.8,1.8,0,0,0-.2.19,5.26,5.26,0,0,1-.71.62A1.68,1.68,0,0,1,355.39,220.49Z"/><path d="M363.62,217.37a.1.1,0,0,1-.06-.18,19.92,19.92,0,0,0,2.57-2.38,6.5,6.5,0,0,0,1.56-3.05s0-.24-.05-.28-.23.12-.27.17c-.21.27-.4.55-.59.81s-.39.55-.6.83a.12.12,0,0,1-.15,0,.12.12,0,0,1,0-.15c.21-.27.41-.55.6-.82s.38-.54.59-.82.43-.28.53-.23.21.25.17.51a6.83,6.83,0,0,1-1.61,3.15,20.32,20.32,0,0,1-2.6,2.4Z"/><path d="M363.46,218.34a.11.11,0,0,1-.1-.09.1.1,0,0,1,.08-.12,4.94,4.94,0,0,0,2.63-1.48,9.4,9.4,0,0,0,1.71-2.57,1.16,1.16,0,0,0,.16-.51.4.4,0,0,0-.2-.39.39.39,0,0,0-.31,0,.14.14,0,0,0-.06.1.1.1,0,0,1-.11.1h0a.09.09,0,0,1-.1-.1.3.3,0,0,1,.16-.27.56.56,0,0,1,.5-.07.59.59,0,0,1,.33.58,1.44,1.44,0,0,1-.18.6,9.84,9.84,0,0,1-1.75,2.63,5.34,5.34,0,0,1-2.74,1.54Z"/><path d="M362.85,219.5a.1.1,0,0,1-.1-.09.1.1,0,0,1,.09-.12,6.53,6.53,0,0,0,4.64-2.72.89.89,0,0,0,.16-.34.26.26,0,0,0-.1-.26.47.47,0,0,0-.26,0,1.33,1.33,0,0,0-.41.21,3,3,0,0,1-.26.16.11.11,0,0,1-.14,0,.1.1,0,0,1,0-.14,1.4,1.4,0,0,0,.24-.15,1.65,1.65,0,0,1,.48-.23.58.58,0,0,1,.39,0,.43.43,0,0,1,.23.47,1,1,0,0,1-.2.43,6.74,6.74,0,0,1-4.79,2.81Z"/><path d="M362.53,220.48a.11.11,0,0,1-.1-.09.11.11,0,0,1,.08-.12,14.78,14.78,0,0,0,2.36-.58,4.84,4.84,0,0,0,2-1.28.74.74,0,0,0,.25-.52.29.29,0,0,0-.17-.22.16.16,0,0,0-.15,0,.1.1,0,0,1-.15,0,.11.11,0,0,1,0-.14.35.35,0,0,1,.36,0,.5.5,0,0,1,.3.39,1,1,0,0,1-.3.68,5.16,5.16,0,0,1-2.09,1.33,14.17,14.17,0,0,1-2.39.6Z"/><path d="M362.07,221.71a.1.1,0,0,1-.1-.08.11.11,0,0,1,.08-.13,19.25,19.25,0,0,0,3.25-1,2.74,2.74,0,0,0,1.29-.84.61.61,0,0,0,.14-.41.37.37,0,0,0-.11-.19.18.18,0,0,0-.13,0,.12.12,0,0,1-.12-.09.1.1,0,0,1,.09-.12.32.32,0,0,1,.28.08.45.45,0,0,1,.19.32.76.76,0,0,1-.17.56,2.94,2.94,0,0,1-1.38.91,19.75,19.75,0,0,1-3.29,1Z"/><path d="M363.18,222.73c-.57,0-1.14-.07-1.67-.12a.12.12,0,0,1-.1-.12.1.1,0,0,1,.12-.09,8.26,8.26,0,0,0,3.13-.07,1.64,1.64,0,0,0,1-.67.87.87,0,0,0,.1-.65.63.63,0,0,0-.27-.38.1.1,0,1,1,.1-.18.8.8,0,0,1,.37.5,1.07,1.07,0,0,1-.12.82,1.85,1.85,0,0,1-1.14.76A5.34,5.34,0,0,1,363.18,222.73Z"/><path d="M363.08,223.79l-.34,0a7.27,7.27,0,0,1-1.67-.33.1.1,0,0,1-.06-.13.09.09,0,0,1,.13-.07,6.76,6.76,0,0,0,1.61.32,2,2,0,0,0,1.13-.15.82.82,0,0,0,.46-.87.11.11,0,0,1,.08-.13.11.11,0,0,1,.13.07,1,1,0,0,1-.57,1.12A2,2,0,0,1,363.08,223.79Z"/><path d="M362,225.16a1.49,1.49,0,0,1-.78-.24,3.25,3.25,0,0,1-.87-1.06.11.11,0,0,1,0-.15.1.1,0,0,1,.14,0,3.27,3.27,0,0,0,.82,1,1,1,0,0,0,1.13.06.71.71,0,0,0,.28-.54.62.62,0,0,0-.22-.52.1.1,0,0,1,0-.15.1.1,0,0,1,.14,0,.86.86,0,0,1,.3.69.94.94,0,0,1-.36.71A1,1,0,0,1,362,225.16Z"/><path d="M361,226.08l-.13,0a.9.9,0,0,1-.47-.37,5.91,5.91,0,0,1-.81-1.34.11.11,0,0,1,.05-.14.11.11,0,0,1,.14,0,6.06,6.06,0,0,0,.78,1.3.74.74,0,0,0,.36.3.5.5,0,0,0,.5-.25,1.17,1.17,0,0,0,.12-.61.1.1,0,0,1,.1-.1h0a.1.1,0,0,1,.11.1,1.28,1.28,0,0,1-.16.72A.72.72,0,0,1,361,226.08Z"/><path d="M360.1,226.73a.89.89,0,0,1-.5-.15,1.37,1.37,0,0,1-.48-.79l-.06-.21a2.28,2.28,0,0,0-.2-.59.1.1,0,0,1,0-.14.1.1,0,0,1,.14,0,2.45,2.45,0,0,1,.23.64,1.6,1.6,0,0,0,.05.21,1.16,1.16,0,0,0,.4.67.66.66,0,0,0,.64.06.67.67,0,0,0,.39-.5.1.1,0,0,1,.12-.09.12.12,0,0,1,.09.12.91.91,0,0,1-.52.67A1,1,0,0,1,360.1,226.73Z"/><path d="M358.69,227a.66.66,0,0,1-.53-.2.93.93,0,0,1-.18-.55v0a3.64,3.64,0,0,0-.35-1.29.11.11,0,0,1,.05-.14.11.11,0,0,1,.14.05,3.83,3.83,0,0,1,.37,1.36v0a.87.87,0,0,0,.12.44.56.56,0,0,0,.43.12,1,1,0,0,0,.5-.15l.05,0c.12-.08.16-.1.17-.22s.06-.11.11-.1a.12.12,0,0,1,.1.12.46.46,0,0,1-.26.38l-.05,0a1.13,1.13,0,0,1-.61.19Z"/><path d="M357.32,227.74a.61.61,0,0,1-.48-.2,1,1,0,0,1-.12-.78v0a4.33,4.33,0,0,0-.17-1.86.11.11,0,0,1,.06-.14.13.13,0,0,1,.14.07,4.64,4.64,0,0,1,.18,2v0c0,.23-.07.47.06.62a.48.48,0,0,0,.42.12.91.91,0,0,0,.72-.76.11.11,0,1,1,.21,0,1.12,1.12,0,0,1-.9,1Z"/><path d="M356.45,227.7a.9.9,0,0,1-.39-.1,1.14,1.14,0,0,1-.49-.65,2.89,2.89,0,0,1-.13-.77.1.1,0,0,1,.1-.11.1.1,0,0,1,.11.1,3.29,3.29,0,0,0,.11.71,1,1,0,0,0,.4.53.52.52,0,0,0,.59,0,.12.12,0,0,1,.15,0,.11.11,0,0,1,0,.15A.65.65,0,0,1,356.45,227.7Z"/><path d="M356.21,222.4a.1.1,0,0,1-.09-.06.11.11,0,0,1,.05-.14,8.19,8.19,0,0,0,2.57-2.31l.19-.23a6.39,6.39,0,0,1,3.06-2.32.11.11,0,0,1,.13.08.1.1,0,0,1-.08.12,6.21,6.21,0,0,0-3,2.25l-.19.23a8.29,8.29,0,0,1-2.64,2.37Z"/><path d="M354.36,218.27s-.05,0-.06-.06a2.25,2.25,0,0,0-.26-1.11,0,0,0,0,1,0-.07s.05,0,.07,0a2.42,2.42,0,0,1,.28,1.16.06.06,0,0,1-.05.06Z"/></svg>